<?xml version="1.0" encoding="UTF-8"?><svg id="Ebene_2" xmlns="http://www.w3.org/2000/svg" viewBox="0 0 1254.2 391.04"><defs><style>.cls-1{fill:#d90f16;}.cls-2{fill:#363c42;}</style></defs><g id="Ebene_4"><path class="cls-2" d="m1254.2,390.63v-37.12h-11.38v37.12h11.38Zm-67.04,0h41.24v-8.92h-29.87v-5.95h27.68v-7.69h-27.68v-5.95h29.22v-8.61h-40.59v37.11Zm-60.08,0h11.36v-9.64h17.9c3.54,0,4.67,1.29,4.67,5.18v4.46h11.37v-6.31c0-6.1-2.81-7.57-6.19-8.2v-.09c5.22-1.23,6.35-4.16,6.35-9.13v-2.36c0-6.66-2.36-11.02-11.12-11.02h-34.34v37.11Zm11.36-27.88h17.8c3.59,0,5.23.61,5.23,3.89v1.22c0,2.68-1.14,3.9-4.21,3.9h-18.82v-9.02Zm-66.42,27.88h41.26v-8.92h-29.89v-5.95h27.68v-7.69h-27.68v-5.95h29.22v-8.61h-40.59v37.11Zm-65.1,0h11.38v-26.97h.1l21.37,26.97h17.64v-37.11h-11.38v26.97h-.09l-21.38-26.97h-17.64v37.11Zm-15.23,0v-37.12h-11.38v37.12h11.38Zm-67.04,0h41.26v-8.92h-29.89v-5.95h27.67v-7.69h-27.67v-5.95h29.22v-8.61h-40.6v37.11Zm-60.08,0h11.37v-9.64h17.91c3.54,0,4.66,1.29,4.66,5.18v4.46h11.38v-6.31c0-6.1-2.83-7.57-6.2-8.2v-.09c5.22-1.23,6.35-4.16,6.35-9.13v-2.36c0-6.66-2.36-11.02-11.12-11.02h-34.35v37.11Zm11.37-27.88h17.79c3.59,0,5.23.61,5.23,3.89v1.22c0,2.68-1.13,3.9-4.21,3.9h-18.82v-9.02Zm-72.72,27.88h11.37v-14.05h24v14.05h11.37v-37.11h-11.37v13.24h-24v-13.24h-11.37v37.11Zm-62.18-13.02c0,10.87,6.1,13.43,16.35,13.43h18.35c11.44,0,13.68-4.91,13.68-11.18v-3.48h-11.37c0,4.62-1.53,5.12-6.67,5.12h-12.14c-5.39,0-6.52-2.05-6.52-7.43v-4c0-4.61,1.13-7.44,7.13-7.44h12.4c3.39,0,5.34.78,5.34,3.44v1.02h11.37c.1-10.5-2-13.98-18.19-13.98h-13.38c-10.25,0-16.35,2.56-16.35,13.42v11.07Zm-59.91,3.44c0,8.05,4.15,9.99,14.5,9.99h13.8c15.11,0,18.49-1.63,18.49-11.63,0-10.81-4.1-11.9-21.77-11.85-12.2.06-13.59-.05-13.59-3.28,0-2,1.74-2.87,4.3-2.87h12.61c5.24,0,5.54.02,5.54,2.73h11.37v-1.17c0-6.51-1.23-9.85-14.35-9.85h-15.9c-14.34,0-14.96,5.17-14.96,11.89,0,9.12,1.95,11.17,19.06,11.17,14.66,0,15.99.2,15.99,3.43,0,2.88-2.46,3.13-4.87,3.13h-13.94c-3.29,0-4.88.8-4.92-3.14h-11.38v1.45Z"/><polygon class="cls-2" points="269.45 82.13 189.22 231.08 108.99 82.13 0 82.13 0 313.55 69.03 313.55 69.03 147.34 69.68 147.34 162.69 313.55 215.75 313.55 308.77 147.34 309.4 147.34 309.4 313.55 378.44 313.55 378.44 82.13 269.45 82.13"/><path class="cls-2" d="m681.14,313.54h70.96v-60.09h111.55c22.06,0,29.1,8,29.1,32.28v27.81h70.94v-39.31c0-38.04-17.57-47.3-38.66-51.14v-.64c32.6-7.67,39.64-25.89,39.64-56.89v-14.71c0-41.55-14.71-68.72-69.36-68.72h-214.16v231.42Zm70.96-173.88h110.91c22.38,0,32.61,3.84,32.61,24.29v7.67c0,16.61-7.03,24.29-26.2,24.29h-117.31v-56.26Z"/><polygon class="cls-2" points="979.5 313.55 1254.07 313.55 1254.07 257.93 1084.66 257.93 1084.66 257.29 1250.23 137.75 1250.23 82.13 983.98 82.13 983.98 137.75 1145.4 137.75 1145.4 138.39 979.5 257.93 979.5 313.55"/><polygon class="cls-1" points="335.16 194.16 531.17 390.17 577.83 343.51 441.36 207.03 472.46 175.92 608.94 312.4 649.16 272.17 512.69 135.7 543.79 104.59 680.27 241.07 725.33 196.01 529.32 0 335.16 194.16"/></g></svg>